<?xml version="1.0" encoding="utf-8" standalone="no"?>
<!DOCTYPE svg PUBLIC "-//W3C//DTD SVG 1.1//EN"
  "http://www.w3.org/Graphics/SVG/1.1/DTD/svg11.dtd">
<svg xmlns:xlink="http://www.w3.org/1999/xlink" width="417.953922pt" height="139.14pt" viewBox="0 0 417.953922 139.14" xmlns="http://www.w3.org/2000/svg" version="1.1">
 <metadata>
  <rdf:RDF xmlns:dc="http://purl.org/dc/elements/1.1/" xmlns:cc="http://creativecommons.org/ns#" xmlns:rdf="http://www.w3.org/1999/02/22-rdf-syntax-ns#">
   <cc:Work>
    <dc:type rdf:resource="http://purl.org/dc/dcmitype/StillImage"/>
    <dc:date>2026-08-09T10:41:04.513924</dc:date>
    <dc:format>image/svg+xml</dc:format>
    <dc:creator>
     <cc:Agent>
      <dc:title>Matplotlib v3.10.5, https://matplotlib.org/</dc:title>
     </cc:Agent>
    </dc:creator>
   </cc:Work>
  </rdf:RDF>
 </metadata>
 <defs>
  <style type="text/css">*{stroke-linejoin: round; stroke-linecap: butt}</style>
 </defs>
 <g id="figure_1">
  <g id="patch_1">
   <path d="M 0 139.14
L 417.953922 139.14
L 417.953922 0
L 0 0
z
" style="fill: #ffffff"/>
  </g>
  <g id="axes_1">
   <g id="patch_2">
    <path d="M 16.44048 83.54088
L 78.31152 83.54088
Q 84.33792 83.54088 84.33792 81.66978
L 84.33792 42.50142
Q 84.33792 40.63032 78.31152 40.63032
L 16.44048 40.63032
Q 10.41408 40.63032 10.41408 42.50142
L 10.41408 81.66978
Q 10.41408 83.54088 16.44048 83.54088
z
" clip-path="url(#p5a3b54cb15)" style="fill: #dce6ef; stroke: #263238; stroke-width: 0.8; stroke-linejoin: miter"/>
   </g>
   <g id="patch_3">
    <path d="M 96.79248 83.54088
L 158.66352 83.54088
Q 164.68992 83.54088 164.68992 81.66978
L 164.68992 42.50142
Q 164.68992 40.63032 158.66352 40.63032
L 96.79248 40.63032
Q 90.76608 40.63032 90.76608 42.50142
L 90.76608 81.66978
Q 90.76608 83.54088 96.79248 83.54088
z
" clip-path="url(#p5a3b54cb15)" style="fill: #cfe8e1; stroke: #263238; stroke-width: 0.8; stroke-linejoin: miter"/>
   </g>
   <g id="patch_4">
    <path d="M 177.14448 83.54088
L 239.01552 83.54088
Q 245.04192 83.54088 245.04192 81.66978
L 245.04192 42.50142
Q 245.04192 40.63032 239.01552 40.63032
L 177.14448 40.63032
Q 171.11808 40.63032 171.11808 42.50142
L 171.11808 81.66978
Q 171.11808 83.54088 177.14448 83.54088
z
" clip-path="url(#p5a3b54cb15)" style="fill: #bfd7ea; stroke: #263238; stroke-width: 0.8; stroke-linejoin: miter"/>
   </g>
   <g id="patch_5">
    <path d="M 257.49648 83.54088
L 319.36752 83.54088
Q 325.39392 83.54088 325.39392 81.66978
L 325.39392 42.50142
Q 325.39392 40.63032 319.36752 40.63032
L 257.49648 40.63032
Q 251.47008 40.63032 251.47008 42.50142
L 251.47008 81.66978
Q 251.47008 83.54088 257.49648 83.54088
z
" clip-path="url(#p5a3b54cb15)" style="fill: #e7e7e7; stroke: #263238; stroke-width: 0.8; stroke-linejoin: miter"/>
   </g>
   <g id="patch_6">
    <path d="M 337.84848 83.54088
L 399.71952 83.54088
Q 405.74592 83.54088 405.74592 81.66978
L 405.74592 42.50142
Q 405.74592 40.63032 399.71952 40.63032
L 337.84848 40.63032
Q 331.82208 40.63032 331.82208 42.50142
L 331.82208 81.66978
Q 331.82208 83.54088 337.84848 83.54088
z
" clip-path="url(#p5a3b54cb15)" style="fill: #f2d6d3; stroke: #263238; stroke-width: 0.8; stroke-linejoin: miter"/>
   </g>
   <g id="patch_7">
    <path d="M 81.518244 62.0856
Q 86.548707 62.0856 90.684743 62.0856
" clip-path="url(#p5a3b54cb15)" style="fill: none; stroke: #263238; stroke-width: 0.8; stroke-linecap: round"/>
    <path d="M 87.084743 60.2856
L 90.684743 62.0856
L 87.084743 63.8856
z
" clip-path="url(#p5a3b54cb15)" style="fill: #263238; stroke: #263238; stroke-width: 0.8; stroke-linecap: round"/>
   </g>
   <g id="patch_8">
    <path d="M 161.870244 62.0856
Q 166.900707 62.0856 171.036743 62.0856
" clip-path="url(#p5a3b54cb15)" style="fill: none; stroke: #263238; stroke-width: 0.8; stroke-linecap: round"/>
    <path d="M 167.436743 60.2856
L 171.036743 62.0856
L 167.436743 63.8856
z
" clip-path="url(#p5a3b54cb15)" style="fill: #263238; stroke: #263238; stroke-width: 0.8; stroke-linecap: round"/>
   </g>
   <g id="patch_9">
    <path d="M 242.222244 62.0856
Q 247.252707 62.0856 251.388743 62.0856
" clip-path="url(#p5a3b54cb15)" style="fill: none; stroke: #263238; stroke-width: 0.8; stroke-linecap: round"/>
    <path d="M 247.788743 60.2856
L 251.388743 62.0856
L 247.788743 63.8856
z
" clip-path="url(#p5a3b54cb15)" style="fill: #263238; stroke: #263238; stroke-width: 0.8; stroke-linecap: round"/>
   </g>
   <g id="patch_10">
    <path d="M 322.574244 62.0856
Q 327.604707 62.0856 331.740743 62.0856
" clip-path="url(#p5a3b54cb15)" style="fill: none; stroke: #263238; stroke-width: 0.8; stroke-linecap: round"/>
    <path d="M 328.140743 60.2856
L 331.740743 62.0856
L 328.140743 63.8856
z
" clip-path="url(#p5a3b54cb15)" style="fill: #263238; stroke: #263238; stroke-width: 0.8; stroke-linecap: round"/>
   </g>
   <g id="line2d_1">
    <path d="M 175.9392 83.2914
L 175.9392 106.992
" clip-path="url(#p5a3b54cb15)" style="fill: none; stroke: #263238; stroke-width: 0.7; stroke-linecap: square"/>
   </g>
   <g id="line2d_2">
    <path d="M 336.6432 83.2914
L 336.6432 106.992
" clip-path="url(#p5a3b54cb15)" style="fill: none; stroke: #263238; stroke-width: 0.7; stroke-linecap: square"/>
   </g>
   <g id="text_1">
    <text style="font-size: 7px; font-family: 'Arial', 'Helvetica', 'DejaVu Sans', sans-serif" transform="translate(21.398891 60.097928)">Source archive</text>
    <text style="font-size: 7px; font-family: 'Arial', 'Helvetica', 'DejaVu Sans', sans-serif" transform="translate(11.582484 67.936397)">replicated outcomes</text>
   </g>
   <g id="text_2">
    <text style="font-size: 7px; font-family: 'Arial', 'Helvetica', 'DejaVu Sans', sans-serif" transform="translate(100.898859 60.097928)">Source ranks +</text>
    <text style="font-size: 7px; font-family: 'Arial', 'Helvetica', 'DejaVu Sans', sans-serif" transform="translate(96.893547 67.936397)">profile coordinate</text>
   </g>
   <g id="text_3">
    <text style="font-size: 7px; font-family: 'Arial', 'Helvetica', 'DejaVu Sans', sans-serif" transform="translate(177.127422 60.097928)">10-point maximin</text>
    <text style="font-size: 7px; font-family: 'Arial', 'Helvetica', 'DejaVu Sans', sans-serif" transform="translate(185.731953 67.936397)">initial design</text>
   </g>
   <g id="text_4">
    <text style="font-size: 7px; font-family: 'Arial', 'Helvetica', 'DejaVu Sans', sans-serif" transform="translate(267.094031 60.097928)">Replaceable</text>
    <text style="font-size: 7px; font-family: 'Arial', 'Helvetica', 'DejaVu Sans', sans-serif" transform="translate(261.892703 67.936397)">target backend</text>
   </g>
   <g id="text_5">
    <text style="font-size: 7px; font-family: 'Arial', 'Helvetica', 'DejaVu Sans', sans-serif" transform="translate(346.598375 60.097928)">Independent</text>
    <text style="font-size: 7px; font-family: 'Arial', 'Helvetica', 'DejaVu Sans', sans-serif" transform="translate(340.618297 67.936397)">terminal verifier</text>
   </g>
   <g id="text_6">
    <text style="font-size: 7px; font-family: 'Arial', 'Helvetica', 'DejaVu Sans', sans-serif; text-anchor: middle; fill: #263238" x="47.376" y="97.0128" transform="rotate(-0 47.376 97.0128)">S source calls</text>
   </g>
   <g id="text_7">
    <text style="font-size: 7px; font-family: 'Arial', 'Helvetica', 'DejaVu Sans', sans-serif; text-anchor: middle; fill: #263238" x="208.08" y="97.0128" transform="rotate(-0 208.08 97.0128)">N target search calls</text>
   </g>
   <g id="text_8">
    <text style="font-size: 7px; font-family: 'Arial', 'Helvetica', 'DejaVu Sans', sans-serif; text-anchor: middle; fill: #263238" x="368.784" y="97.0128" transform="rotate(-0 368.784 97.0128)">V fresh verification calls</text>
   </g>
   <g id="patch_11">
    <path d="M 175.9392 113.888356
Q 175.9392 113.310813 175.9392 112.73327
" style="fill: none; stroke: #000000; stroke-width: 0.6; stroke-linecap: round"/>
   </g>
   <g id="text_9">
    <text style="font-size: 7px; font-family: 'Arial', 'Helvetica', 'DejaVu Sans', sans-serif; text-anchor: middle" x="175.9392" y="123.2082" transform="rotate(-0 175.9392 123.2082)">target responses begin</text>
   </g>
   <g id="patch_12">
    <path d="M 336.6432 113.888356
Q 336.6432 113.310813 336.6432 112.73327
" style="fill: none; stroke: #000000; stroke-width: 0.6; stroke-linecap: round"/>
   </g>
   <g id="text_10">
    <text style="font-size: 7px; font-family: 'Arial', 'Helvetica', 'DejaVu Sans', sans-serif; text-anchor: middle" x="336.6432" y="123.2082" transform="rotate(-0 336.6432 123.2082)">verification never feeds search</text>
   </g>
  </g>
 </g>
 <defs>
  <clipPath id="p5a3b54cb15">
   <rect x="7.2" y="7.2" width="401.76" height="124.74"/>
  </clipPath>
 </defs>
</svg>
